<?xml version="1.0" encoding="UTF-8" standalone="no"?>
<svg
   xmlns:dc="http://purl.org/dc/elements/1.1/"
   xmlns:cc="http://creativecommons.org/ns#"
   xmlns:rdf="http://www.w3.org/1999/02/22-rdf-syntax-ns#"
   xmlns:svg="http://www.w3.org/2000/svg"
   xmlns="http://www.w3.org/2000/svg"
   id="svg3851"
   height="159"
   width="159"
   version="1.1">
  <metadata
     id="metadata3857">
    <rdf:RDF>
      <cc:Work
         rdf:about="">
        <dc:format>image/svg+xml</dc:format>
        <dc:type
           rdf:resource="http://purl.org/dc/dcmitype/StillImage" />
        <dc:title></dc:title>
      </cc:Work>
    </rdf:RDF>
  </metadata>
  <defs
     id="defs3855" />
  <path
     id="path3793"
     transform="translate(27,20)"
     fill="#F14135"
     d="M0 0 C14.07356565 -0.11700328 28.14705546 -0.20473813 42.2210083 -0.25906086 C48.75639739 -0.28513537 55.29145933 -0.32049558 61.82666016 -0.37719727 C68.13552051 -0.43159153 74.44406652 -0.46143668 80.75314331 -0.47438622 C83.15808052 -0.48361261 85.56300085 -0.50162972 87.96780396 -0.52865028 C91.34089099 -0.56503742 94.71268524 -0.56994106 98.0859375 -0.56762695 C99.07640579 -0.58560333 100.06687408 -0.60357971 101.08735657 -0.62210083 C107.55220451 -0.57422554 112.05138755 0.7002072 117 5 C120.20176698 10.29887408 119.40750734 16.80397051 119.4375 22.8125 C119.47037109 23.96298828 119.50324219 25.11347656 119.53710938 26.29882812 C119.58171544 33.37497268 119.06319366 38.73927447 114 44 C109.83369045 46.7487569 105.02226099 46.2303678 100.1875 46.125 C99.00510742 46.11146484 99.00510742 46.11146484 97.79882812 46.09765625 C95.86575334 46.07422504 93.9328362 46.03835838 92 46 C92.02618408 46.76554199 92.05236816 47.53108398 92.0793457 48.31982422 C92.18422722 51.83800161 92.24861499 55.35584882 92.3125 58.875 C92.35439453 60.07898438 92.39628906 61.28296875 92.43945312 62.5234375 C92.55873086 71.30227882 91.20530763 77.92850805 85.51245117 84.79394531 C77.97312448 92.07360532 67.80307888 93.61567265 57.7421875 93.53125 C56.71368683 93.5350769 55.68518616 93.53890381 54.6255188 93.54284668 C52.46924856 93.54554813 50.31294455 93.53831204 48.15673828 93.52148438 C44.87587949 93.50000576 41.59719914 93.52137026 38.31640625 93.546875 C36.20832856 93.54423227 34.1002522 93.53910843 31.9921875 93.53125 C31.02320526 93.53934692 30.05422302 93.54744385 29.05587769 93.55578613 C19.94584611 93.43158233 12.4433385 90.50666705 5.86761475 84.10263062 C-1.32918044 76.00020911 -0.53098397 65.4223065 -0.390625 55.2734375 C-0.38315008 53.67347933 -0.37746307 52.07351191 -0.37347412 50.47354126 C-0.35831596 46.29439314 -0.31912125 42.115815 -0.2746582 37.93688965 C-0.23349146 33.65982775 -0.21541775 29.38267233 -0.1953125 25.10546875 C-0.15261542 16.73671972 -0.08448607 8.36843108 0 0 Z " />
  <path
     id="path3795"
     transform="translate(13,126)"
     fill="#E63F39"
     d="M0 0 C39.6 0 79.2 0 120 0 C120 4.29 120 8.58 120 13 C80.4 13 40.8 13 0 13 C0 8.71 0 4.42 0 0 Z " />
  <path
     id="path3803"
     transform="translate(119,33)"
     fill="#FED9D3"
     d="M0 0 C4.62 0 9.24 0 14 0 C14 6.6 14 13.2 14 20 C9.38 20 4.76 20 0 20 C0 13.4 0 6.8 0 0 Z " />
  <path
     id="path3859"
     d="m 119.03906,43.067142 v -9.9375 h 6.90572 6.90572 v 9.9375 9.9375 h -6.90572 -6.90572 z"
     style="stroke-width:0.16843221;fill:#ffffff" />
</svg>
